<?xml version="1.0" standalone="no"?>
<!DOCTYPE svg PUBLIC "-//W3C//DTD SVG 20010904//EN"
 "http://www.w3.org/TR/2001/REC-SVG-20010904/DTD/svg10.dtd">
<svg version="1.0" xmlns="http://www.w3.org/2000/svg"
 width="512.000000pt" height="512.000000pt" viewBox="0 0 512.000000 512.000000"
 preserveAspectRatio="xMidYMid meet">

<g transform="translate(0.000000,512.000000) scale(0.100000,-0.100000)"
fill="#000000" stroke="none">
<path d="M0 2560 l0 -2560 2560 0 2560 0 0 2560 0 2560 -2560 0 -2560 0 0
-2560z m1692 2403 c15 -16 36 -50 48 -78 75 -174 870 -2240 870 -2260 0 -14
-8 -29 -19 -35 -12 -6 -123 -10 -291 -10 -268 0 -271 0 -293 22 -12 13 -51
101 -86 196 l-65 172 -429 -2 -430 -3 -65 -170 c-35 -93 -73 -180 -85 -192
-20 -23 -23 -23 -297 -23 -263 0 -278 1 -295 20 -17 19 -5 53 429 1177 370
957 452 1163 477 1186 l29 27 238 0 238 0 26 -27z m1789 8 l24 -19 3 -896 2
-896 460 0 c447 0 461 -1 480 -20 19 -19 20 -33 20 -267 0 -240 -1 -247 -22
-270 l-21 -23 -757 0 c-637 0 -759 2 -776 14 -19 14 -19 39 -22 1179 l-2 1164
21 26 20 27 274 0 c254 0 274 -1 296 -19z m-2592 -2458 c16 -13 85 -206 267
-748 134 -401 247 -737 250 -745 5 -13 6 -13 13 0 11 21 133 382 322 960 132
400 168 500 190 523 l27 27 296 0 c316 0 326 -2 326 -51 0 -11 -196 -530 -436
-1154 -317 -823 -444 -1143 -466 -1169 l-29 -36 -238 0 c-267 0 -249 -5 -291
79 -37 74 -870 2260 -870 2284 0 46 7 47 321 47 268 0 299 -2 318 -17z m3336
-12 c223 -74 400 -223 494 -414 52 -107 71 -179 78 -303 12 -209 -54 -394
-198 -558 -37 -41 -132 -120 -183 -151 -15 -9 13 -66 213 -443 149 -279 231
-444 231 -462 0 -19 -7 -33 -19 -40 -12 -6 -133 -10 -324 -10 -276 0 -307 2
-326 18 -11 9 -47 67 -78 127 -32 61 -123 233 -203 383 l-145 272 -127 0 -128
0 0 -364 c0 -358 -4 -410 -33 -428 -7 -4 -136 -8 -288 -8 -222 0 -279 3 -295
14 -19 14 -19 39 -22 1179 l-2 1164 21 27 21 27 622 -3 c620 -3 621 -3 691
-27z"/>
<path d="M1304 3855 l-121 -365 243 0 c136 0 244 4 244 9 0 9 -238 713 -243
717 -2 2 -57 -161 -123 -361z"/>
<path d="M3510 1735 l0 -297 198 5 c239 5 282 16 352 86 111 111 109 293 -5
408 -72 72 -112 82 -352 90 l-193 6 0 -298z"/>
</g>
</svg>
